solid OpenSCAD_Model
  facet normal -0.866025 -0.5 0
    outer loop
      vertex 9.75 8 0
      vertex 8.875 9.51554 3
      vertex 8.875 9.51554 0
    endloop
  endfacet
  facet normal -0.866025 -0.5 0
    outer loop
      vertex 8.875 9.51554 3
      vertex 9.75 8 0
      vertex 9.75 8 3
    endloop
  endfacet
  facet normal 0.866026 0.499999 0
    outer loop
      vertex 7.125 6.48446 3
      vertex 6.25 8 0
      vertex 6.25 8 3
    endloop
  endfacet
  facet normal 0.866026 0.499999 0
    outer loop
      vertex 6.25 8 0
      vertex 7.125 6.48446 3
      vertex 7.125 6.48446 0
    endloop
  endfacet
  facet normal 0 -1 0
    outer loop
      vertex 7.125 9.51554 0
      vertex 8.875 9.51554 3
      vertex 7.125 9.51554 3
    endloop
  endfacet
  facet normal 0 -1 -0
    outer loop
      vertex 8.875 9.51554 3
      vertex 7.125 9.51554 0
      vertex 8.875 9.51554 0
    endloop
  endfacet
  facet normal 0 1 -0
    outer loop
      vertex 8.875 6.48446 0
      vertex 7.125 6.48446 3
      vertex 8.875 6.48446 3
    endloop
  endfacet
  facet normal 0 1 0
    outer loop
      vertex 7.125 6.48446 3
      vertex 8.875 6.48446 0
      vertex 7.125 6.48446 0
    endloop
  endfacet
  facet normal 0.866025 -0.5 0
    outer loop
      vertex 6.25 8 3
      vertex 7.125 9.51554 0
      vertex 7.125 9.51554 3
    endloop
  endfacet
  facet normal 0.866025 -0.5 0
    outer loop
      vertex 7.125 9.51554 0
      vertex 6.25 8 3
      vertex 6.25 8 0
    endloop
  endfacet
  facet normal -0.866025 0.5 0
    outer loop
      vertex 8.875 6.48446 0
      vertex 9.75 8 3
      vertex 9.75 8 0
    endloop
  endfacet
  facet normal -0.866025 0.5 0
    outer loop
      vertex 9.75 8 3
      vertex 8.875 6.48446 0
      vertex 8.875 6.48446 3
    endloop
  endfacet
  facet normal -0.866025 0.5 0
    outer loop
      vertex 8.875 -9.51554 0
      vertex 9.75 -8 3
      vertex 9.75 -8 0
    endloop
  endfacet
  facet normal -0.866025 0.5 0
    outer loop
      vertex 9.75 -8 3
      vertex 8.875 -9.51554 0
      vertex 8.875 -9.51554 3
    endloop
  endfacet
  facet normal 0 -1 0
    outer loop
      vertex 7.125 -6.48446 0
      vertex 8.875 -6.48446 3
      vertex 7.125 -6.48446 3
    endloop
  endfacet
  facet normal 0 -1 -0
    outer loop
      vertex 8.875 -6.48446 3
      vertex 7.125 -6.48446 0
      vertex 8.875 -6.48446 0
    endloop
  endfacet
  facet normal -0.866025 -0.5 0
    outer loop
      vertex 9.75 -8 0
      vertex 8.875 -6.48446 3
      vertex 8.875 -6.48446 0
    endloop
  endfacet
  facet normal -0.866025 -0.5 0
    outer loop
      vertex 8.875 -6.48446 3
      vertex 9.75 -8 0
      vertex 9.75 -8 3
    endloop
  endfacet
  facet normal 0 1 -0
    outer loop
      vertex 8.875 -9.51554 0
      vertex 7.125 -9.51554 3
      vertex 8.875 -9.51554 3
    endloop
  endfacet
  facet normal 0 1 0
    outer loop
      vertex 7.125 -9.51554 3
      vertex 8.875 -9.51554 0
      vertex 7.125 -9.51554 0
    endloop
  endfacet
  facet normal 0.866025 0.5 0
    outer loop
      vertex 7.125 -9.51554 3
      vertex 6.25 -8 0
      vertex 6.25 -8 3
    endloop
  endfacet
  facet normal 0.866025 0.5 0
    outer loop
      vertex 6.25 -8 0
      vertex 7.125 -9.51554 3
      vertex 7.125 -9.51554 0
    endloop
  endfacet
  facet normal 0.866026 -0.499999 0
    outer loop
      vertex 6.25 -8 3
      vertex 7.125 -6.48446 0
      vertex 7.125 -6.48446 3
    endloop
  endfacet
  facet normal 0.866026 -0.499999 0
    outer loop
      vertex 7.125 -6.48446 0
      vertex 6.25 -8 3
      vertex 6.25 -8 0
    endloop
  endfacet
  facet normal 0.866025 -0.5 0
    outer loop
      vertex -9.75 8 3
      vertex -8.875 9.51554 0
      vertex -8.875 9.51554 3
    endloop
  endfacet
  facet normal 0.866025 -0.5 0
    outer loop
      vertex -8.875 9.51554 0
      vertex -9.75 8 3
      vertex -9.75 8 0
    endloop
  endfacet
  facet normal -0.866026 0.499999 0
    outer loop
      vertex -7.125 6.48446 0
      vertex -6.25 8 3
      vertex -6.25 8 0
    endloop
  endfacet
  facet normal -0.866026 0.499999 0
    outer loop
      vertex -6.25 8 3
      vertex -7.125 6.48446 0
      vertex -7.125 6.48446 3
    endloop
  endfacet
  facet normal 0 -1 0
    outer loop
      vertex -8.875 9.51554 0
      vertex -7.125 9.51554 3
      vertex -8.875 9.51554 3
    endloop
  endfacet
  facet normal 0 -1 -0
    outer loop
      vertex -7.125 9.51554 3
      vertex -8.875 9.51554 0
      vertex -7.125 9.51554 0
    endloop
  endfacet
  facet normal 0 1 -0
    outer loop
      vertex -7.125 6.48446 0
      vertex -8.875 6.48446 3
      vertex -7.125 6.48446 3
    endloop
  endfacet
  facet normal 0 1 0
    outer loop
      vertex -8.875 6.48446 3
      vertex -7.125 6.48446 0
      vertex -8.875 6.48446 0
    endloop
  endfacet
  facet normal -0.866025 -0.5 0
    outer loop
      vertex -6.25 8 0
      vertex -7.125 9.51554 3
      vertex -7.125 9.51554 0
    endloop
  endfacet
  facet normal -0.866025 -0.5 0
    outer loop
      vertex -7.125 9.51554 3
      vertex -6.25 8 0
      vertex -6.25 8 3
    endloop
  endfacet
  facet normal 0.866025 0.5 0
    outer loop
      vertex -8.875 6.48446 3
      vertex -9.75 8 0
      vertex -9.75 8 3
    endloop
  endfacet
  facet normal 0.866025 0.5 0
    outer loop
      vertex -9.75 8 0
      vertex -8.875 6.48446 3
      vertex -8.875 6.48446 0
    endloop
  endfacet
  facet normal 0.866025 0.5 0
    outer loop
      vertex -8.875 -9.51554 3
      vertex -9.75 -8 0
      vertex -9.75 -8 3
    endloop
  endfacet
  facet normal 0.866025 0.5 0
    outer loop
      vertex -9.75 -8 0
      vertex -8.875 -9.51554 3
      vertex -8.875 -9.51554 0
    endloop
  endfacet
  facet normal 0 -1 0
    outer loop
      vertex -8.875 -6.48446 0
      vertex -7.125 -6.48446 3
      vertex -8.875 -6.48446 3
    endloop
  endfacet
  facet normal 0 -1 -0
    outer loop
      vertex -7.125 -6.48446 3
      vertex -8.875 -6.48446 0
      vertex -7.125 -6.48446 0
    endloop
  endfacet
  facet normal 0.866025 -0.5 0
    outer loop
      vertex -9.75 -8 3
      vertex -8.875 -6.48446 0
      vertex -8.875 -6.48446 3
    endloop
  endfacet
  facet normal 0.866025 -0.5 0
    outer loop
      vertex -8.875 -6.48446 0
      vertex -9.75 -8 3
      vertex -9.75 -8 0
    endloop
  endfacet
  facet normal 0 1 -0
    outer loop
      vertex -7.125 -9.51554 0
      vertex -8.875 -9.51554 3
      vertex -7.125 -9.51554 3
    endloop
  endfacet
  facet normal 0 1 0
    outer loop
      vertex -8.875 -9.51554 3
      vertex -7.125 -9.51554 0
      vertex -8.875 -9.51554 0
    endloop
  endfacet
  facet normal -0.866025 0.5 0
    outer loop
      vertex -7.125 -9.51554 0
      vertex -6.25 -8 3
      vertex -6.25 -8 0
    endloop
  endfacet
  facet normal -0.866025 0.5 0
    outer loop
      vertex -6.25 -8 3
      vertex -7.125 -9.51554 0
      vertex -7.125 -9.51554 3
    endloop
  endfacet
  facet normal -0.866026 -0.499999 0
    outer loop
      vertex -6.25 -8 0
      vertex -7.125 -6.48446 3
      vertex -7.125 -6.48446 0
    endloop
  endfacet
  facet normal -0.866026 -0.499999 0
    outer loop
      vertex -7.125 -6.48446 3
      vertex -6.25 -8 0
      vertex -6.25 -8 3
    endloop
  endfacet
  facet normal -0.951056 -0.309017 0
    outer loop
      vertex -10.4271 -9.76336 0
      vertex -11 -8 3
      vertex -11 -8 0
    endloop
  endfacet
  facet normal -0.951056 -0.309017 0
    outer loop
      vertex -11 -8 3
      vertex -10.4271 -9.76336 0
      vertex -10.4271 -9.76336 3
    endloop
  endfacet
  facet normal 0 0 1
    outer loop
      vertex -2.9079 -6.36742 3
      vertex -7.125 -6.48446 3
      vertex -6.25 -8 3
    endloop
  endfacet
  facet normal 0 0 1
    outer loop
      vertex -8.92705 -2.85317 3
      vertex -7.125 -6.48446 3
      vertex -2.9079 -6.36742 3
    endloop
  endfacet
  facet normal 0 0 1
    outer loop
      vertex -7.125 -6.48446 3
      vertex -8.92705 -2.85317 3
      vertex -8.875 -6.48446 3
    endloop
  endfacet
  facet normal 0 0 1
    outer loop
      vertex -10.4271 -1.76336 3
      vertex -8.875 -6.48446 3
      vertex -8.92705 -2.85317 3
    endloop
  endfacet
  facet normal 0 0 1
    outer loop
      vertex -8.875 -6.48446 3
      vertex -10.4271 -1.76336 3
      vertex -11 -8 3
    endloop
  endfacet
  facet normal -0 0 1
    outer loop
      vertex 10.4271 -1.76336 3
      vertex 11 -8 3
      vertex 11 0 3
    endloop
  endfacet
  facet normal -0 0 1
    outer loop
      vertex 8.875 -6.48446 3
      vertex 11 -8 3
      vertex 10.4271 -1.76336 3
    endloop
  endfacet
  facet normal 0 0 1
    outer loop
      vertex 11 -8 3
      vertex 9.75 -8 3
      vertex 10.4271 -9.76336 3
    endloop
  endfacet
  facet normal 0 0 1
    outer loop
      vertex 8.875 -6.48446 3
      vertex 10.4271 -1.76336 3
      vertex 8.92705 -2.85317 3
    endloop
  endfacet
  facet normal 0 0 1
    outer loop
      vertex 11 -8 3
      vertex 8.875 -6.48446 3
      vertex 9.75 -8 3
    endloop
  endfacet
  facet normal 0 0 1
    outer loop
      vertex 8.92705 -2.85317 3
      vertex 7.125 -6.48446 3
      vertex 8.875 -6.48446 3
    endloop
  endfacet
  facet normal -0 0 1
    outer loop
      vertex 2.9079 -6.36742 3
      vertex 7.125 -6.48446 3
      vertex 8.92705 -2.85317 3
    endloop
  endfacet
  facet normal 0 0 1
    outer loop
      vertex 7.125 -6.48446 3
      vertex 2.9079 -6.36742 3
      vertex 6.25 -8 3
    endloop
  endfacet
  facet normal -0 0 1
    outer loop
      vertex 8.875 -9.51554 3
      vertex 10.4271 -9.76336 3
      vertex 9.75 -8 3
    endloop
  endfacet
  facet normal 0 0 1
    outer loop
      vertex 10.4271 -9.76336 3
      vertex 8.875 -9.51554 3
      vertex 8.92705 -10.8532 3
    endloop
  endfacet
  facet normal -0 0 1
    outer loop
      vertex 7.125 -9.51554 3
      vertex 8.92705 -10.8532 3
      vertex 8.875 -9.51554 3
    endloop
  endfacet
  facet normal -0 0 1
    outer loop
      vertex 0.996203 -6.92875 3
      vertex 6.25 -8 3
      vertex 2.9079 -6.36742 3
    endloop
  endfacet
  facet normal 0 0 1
    outer loop
      vertex 6.25 -8 3
      vertex 0.996203 -6.92875 3
      vertex 7.125 -9.51554 3
    endloop
  endfacet
  facet normal 0 0 1
    outer loop
      vertex -7.125 -9.51554 3
      vertex 7.125 -9.51554 3
      vertex 0.996203 -6.92875 3
    endloop
  endfacet
  facet normal 0 0 1
    outer loop
      vertex -7.125 -9.51554 3
      vertex 0.996203 -6.92875 3
      vertex -0.996203 -6.92875 3
    endloop
  endfacet
  facet normal 0 0 1
    outer loop
      vertex -6.25 -8 3
      vertex -0.996203 -6.92875 3
      vertex -2.9079 -6.36742 3
    endloop
  endfacet
  facet normal 0 0 1
    outer loop
      vertex -0.996203 -6.92875 3
      vertex -6.25 -8 3
      vertex -7.125 -9.51554 3
    endloop
  endfacet
  facet normal 0 0 1
    outer loop
      vertex 7.125 -9.51554 3
      vertex -7.125 -9.51554 3
      vertex 8.92705 -10.8532 3
    endloop
  endfacet
  facet normal 0 0 1
    outer loop
      vertex -8.92705 -10.8532 3
      vertex -7.125 -9.51554 3
      vertex -8.875 -9.51554 3
    endloop
  endfacet
  facet normal 0 0 1
    outer loop
      vertex -7.125 -9.51554 3
      vertex -8.92705 -10.8532 3
      vertex 8.92705 -10.8532 3
    endloop
  endfacet
  facet normal 0 0 1
    outer loop
      vertex -10.4271 -9.76336 3
      vertex -8.875 -9.51554 3
      vertex -9.75 -8 3
    endloop
  endfacet
  facet normal 0 0 1
    outer loop
      vertex -8.875 -9.51554 3
      vertex -10.4271 -9.76336 3
      vertex -8.92705 -10.8532 3
    endloop
  endfacet
  facet normal 0 0 1
    outer loop
      vertex -8.875 -6.48446 3
      vertex -11 -8 3
      vertex -9.75 -8 3
    endloop
  endfacet
  facet normal 0 0 1
    outer loop
      vertex -11 -8 3
      vertex -10.4271 -1.76336 3
      vertex -11 0 3
    endloop
  endfacet
  facet normal 0 0 1
    outer loop
      vertex -9.75 -8 3
      vertex -11 -8 3
      vertex -10.4271 -9.76336 3
    endloop
  endfacet
  facet normal 0 0 1
    outer loop
      vertex 9.75 8 3
      vertex 11 8 3
      vertex 10.4271 9.76336 3
    endloop
  endfacet
  facet normal 0 0 1
    outer loop
      vertex 11 8 3
      vertex 10.4271 1.76336 3
      vertex 11 0 3
    endloop
  endfacet
  facet normal 0 0 1
    outer loop
      vertex 8.875 6.48446 3
      vertex 11 8 3
      vertex 9.75 8 3
    endloop
  endfacet
  facet normal 0 0 1
    outer loop
      vertex 8.875 9.51554 3
      vertex 10.4271 9.76336 3
      vertex 8.92705 10.8532 3
    endloop
  endfacet
  facet normal 0 0 1
    outer loop
      vertex 10.4271 9.76336 3
      vertex 8.875 9.51554 3
      vertex 9.75 8 3
    endloop
  endfacet
  facet normal 0 0 1
    outer loop
      vertex 8.92705 10.8532 3
      vertex 7.125 9.51554 3
      vertex 8.875 9.51554 3
    endloop
  endfacet
  facet normal 0 0 1
    outer loop
      vertex 0.996203 6.92875 3
      vertex 6.25 8 3
      vertex 7.125 9.51554 3
    endloop
  endfacet
  facet normal 0 0 1
    outer loop
      vertex 6.25 8 3
      vertex 0.996203 6.92875 3
      vertex 2.9079 6.36742 3
    endloop
  endfacet
  facet normal 0 0 1
    outer loop
      vertex -7.125 9.51554 3
      vertex 7.125 9.51554 3
      vertex 8.92705 10.8532 3
    endloop
  endfacet
  facet normal 0 0 1
    outer loop
      vertex 7.125 9.51554 3
      vertex -7.125 9.51554 3
      vertex 0.996203 6.92875 3
    endloop
  endfacet
  facet normal 0 0 1
    outer loop
      vertex 0.996203 6.92875 3
      vertex -7.125 9.51554 3
      vertex -0.996203 6.92875 3
    endloop
  endfacet
  facet normal -0 -0 1
    outer loop
      vertex -6.25 8 3
      vertex -0.996203 6.92875 3
      vertex -7.125 9.51554 3
    endloop
  endfacet
  facet normal 0 0 1
    outer loop
      vertex -0.996203 6.92875 3
      vertex -6.25 8 3
      vertex -2.9079 6.36742 3
    endloop
  endfacet
  facet normal -0 0 1
    outer loop
      vertex -8.92705 10.8532 3
      vertex -7.125 9.51554 3
      vertex 8.92705 10.8532 3
    endloop
  endfacet
  facet normal 0 0 1
    outer loop
      vertex -7.125 9.51554 3
      vertex -8.92705 10.8532 3
      vertex -8.875 9.51554 3
    endloop
  endfacet
  facet normal -0 0 1
    outer loop
      vertex -10.4271 9.76336 3
      vertex -8.875 9.51554 3
      vertex -8.92705 10.8532 3
    endloop
  endfacet
  facet normal 0 0 1
    outer loop
      vertex -8.875 9.51554 3
      vertex -10.4271 9.76336 3
      vertex -9.75 8 3
    endloop
  endfacet
  facet normal 0 0 1
    outer loop
      vertex 11 8 3
      vertex 8.875 6.48446 3
      vertex 10.4271 1.76336 3
    endloop
  endfacet
  facet normal 0 0 1
    outer loop
      vertex 10.4271 1.76336 3
      vertex 8.875 6.48446 3
      vertex 8.92705 2.85317 3
    endloop
  endfacet
  facet normal -0 0 1
    outer loop
      vertex 7.125 6.48446 3
      vertex 8.92705 2.85317 3
      vertex 8.875 6.48446 3
    endloop
  endfacet
  facet normal 0 0 1
    outer loop
      vertex 2.9079 6.36742 3
      vertex 7.125 6.48446 3
      vertex 6.25 8 3
    endloop
  endfacet
  facet normal 0 0 1
    outer loop
      vertex 7.125 6.48446 3
      vertex 2.9079 6.36742 3
      vertex 8.92705 2.85317 3
    endloop
  endfacet
  facet normal -0 0 1
    outer loop
      vertex -7.125 6.48446 3
      vertex -2.9079 6.36742 3
      vertex -6.25 8 3
    endloop
  endfacet
  facet normal 0 0 1
    outer loop
      vertex -8.92705 2.85317 3
      vertex -7.125 6.48446 3
      vertex -8.875 6.48446 3
    endloop
  endfacet
  facet normal 0 0 1
    outer loop
      vertex -7.125 6.48446 3
      vertex -8.92705 2.85317 3
      vertex -2.9079 6.36742 3
    endloop
  endfacet
  facet normal -0 0 1
    outer loop
      vertex -11 8 3
      vertex -8.875 6.48446 3
      vertex -9.75 8 3
    endloop
  endfacet
  facet normal 0 0 1
    outer loop
      vertex -11 8 3
      vertex -9.75 8 3
      vertex -10.4271 9.76336 3
    endloop
  endfacet
  facet normal 0 -0 1
    outer loop
      vertex -10.4271 1.76336 3
      vertex -8.875 6.48446 3
      vertex -11 8 3
    endloop
  endfacet
  facet normal 0 0 1
    outer loop
      vertex -8.875 6.48446 3
      vertex -10.4271 1.76336 3
      vertex -8.92705 2.85317 3
    endloop
  endfacet
  facet normal 0 0 1
    outer loop
      vertex -10.4271 1.76336 3
      vertex -11 8 3
      vertex -11 0 3
    endloop
  endfacet
  facet normal 0.951056 0.309017 0
    outer loop
      vertex 11 8 3
      vertex 10.4271 9.76336 0
      vertex 10.4271 9.76336 3
    endloop
  endfacet
  facet normal 0.951056 0.309017 0
    outer loop
      vertex 10.4271 9.76336 0
      vertex 11 8 3
      vertex 11 8 0
    endloop
  endfacet
  facet normal -0.587785 0.809017 0
    outer loop
      vertex -8.92705 10.8532 0
      vertex -10.4271 9.76336 3
      vertex -8.92705 10.8532 3
    endloop
  endfacet
  facet normal -0.587785 0.809017 0
    outer loop
      vertex -10.4271 9.76336 3
      vertex -8.92705 10.8532 0
      vertex -10.4271 9.76336 0
    endloop
  endfacet
  facet normal -0.951056 0.309017 0
    outer loop
      vertex -11 8 0
      vertex -10.4271 9.76336 3
      vertex -10.4271 9.76336 0
    endloop
  endfacet
  facet normal -0.951056 0.309017 0
    outer loop
      vertex -10.4271 9.76336 3
      vertex -11 8 0
      vertex -11 8 3
    endloop
  endfacet
  facet normal 0.587785 0.809017 -0
    outer loop
      vertex 10.4271 9.76336 0
      vertex 8.92705 10.8532 3
      vertex 10.4271 9.76336 3
    endloop
  endfacet
  facet normal 0.587785 0.809017 0
    outer loop
      vertex 8.92705 10.8532 3
      vertex 10.4271 9.76336 0
      vertex 8.92705 10.8532 0
    endloop
  endfacet
  facet normal -1 0 0
    outer loop
      vertex -11 8 0
      vertex -11 0 3
      vertex -11 8 3
    endloop
  endfacet
  facet normal -1 0 0
    outer loop
      vertex -11 -8 0
      vertex -11 0 3
      vertex -11 8 0
    endloop
  endfacet
  facet normal -1 -0 0
    outer loop
      vertex -11 0 3
      vertex -11 -8 0
      vertex -11 -8 3
    endloop
  endfacet
  facet normal 0 1 -0
    outer loop
      vertex 8.92705 10.8532 0
      vertex -8.92705 10.8532 3
      vertex 8.92705 10.8532 3
    endloop
  endfacet
  facet normal 0 1 0
    outer loop
      vertex -8.92705 10.8532 3
      vertex 8.92705 10.8532 0
      vertex -8.92705 10.8532 0
    endloop
  endfacet
  facet normal -0 0 -1
    outer loop
      vertex -4.6194 -1.91342 0
      vertex -8.875 -6.48446 0
      vertex -5 0 0
    endloop
  endfacet
  facet normal 0 0 -1
    outer loop
      vertex -5 0 0
      vertex -7.125 6.48446 0
      vertex -6.25 8 0
    endloop
  endfacet
  facet normal 0 0 -1
    outer loop
      vertex -8.875 6.48446 0
      vertex -5 0 0
      vertex -8.875 -6.48446 0
    endloop
  endfacet
  facet normal 0 0 -1
    outer loop
      vertex -5 0 0
      vertex -8.875 6.48446 0
      vertex -7.125 6.48446 0
    endloop
  endfacet
  facet normal 0 0 -1
    outer loop
      vertex -11 -8 0
      vertex -8.875 -6.48446 0
      vertex -9.75 -8 0
    endloop
  endfacet
  facet normal -0 0 -1
    outer loop
      vertex -8.875 -6.48446 0
      vertex -11 -8 0
      vertex -8.875 6.48446 0
    endloop
  endfacet
  facet normal 0 0 -1
    outer loop
      vertex 8.875 6.48446 0
      vertex 11 8 0
      vertex 8.875 -6.48446 0
    endloop
  endfacet
  facet normal -0 0 -1
    outer loop
      vertex 11 8 0
      vertex 8.875 6.48446 0
      vertex 9.75 8 0
    endloop
  endfacet
  facet normal 0 0 -1
    outer loop
      vertex 4.6194 -1.91342 0
      vertex 8.875 -6.48446 0
      vertex 7.125 -6.48446 0
    endloop
  endfacet
  facet normal 0 0 -1
    outer loop
      vertex 8.875 -6.48446 0
      vertex 5 0 0
      vertex 8.875 6.48446 0
    endloop
  endfacet
  facet normal 0 0 -1
    outer loop
      vertex 3.53553 -3.53553 0
      vertex 7.125 -6.48446 0
      vertex 6.25 -8 0
    endloop
  endfacet
  facet normal 0 0 -1
    outer loop
      vertex 4.6194 1.91342 0
      vertex 8.875 6.48446 0
      vertex 5 0 0
    endloop
  endfacet
  facet normal 0 0 -1
    outer loop
      vertex 9.75 -8 0
      vertex 11 -8 0
      vertex 10.4271 -9.76336 0
    endloop
  endfacet
  facet normal 0 0 -1
    outer loop
      vertex 8.875 -6.48446 0
      vertex 11 -8 0
      vertex 9.75 -8 0
    endloop
  endfacet
  facet normal 0 0 -1
    outer loop
      vertex 11 -8 0
      vertex 8.875 -6.48446 0
      vertex 11 8 0
    endloop
  endfacet
  facet normal 0 0 -1
    outer loop
      vertex 8.875 -9.51554 0
      vertex 10.4271 -9.76336 0
      vertex 8.92705 -10.8532 0
    endloop
  endfacet
  facet normal 0 0 -1
    outer loop
      vertex 10.4271 -9.76336 0
      vertex 8.875 -9.51554 0
      vertex 9.75 -8 0
    endloop
  endfacet
  facet normal 0 0 -1
    outer loop
      vertex 8.92705 -10.8532 0
      vertex 7.125 -9.51554 0
      vertex 8.875 -9.51554 0
    endloop
  endfacet
  facet normal -0 0 -1
    outer loop
      vertex 8.875 6.48446 0
      vertex 4.6194 1.91342 0
      vertex 7.125 6.48446 0
    endloop
  endfacet
  facet normal 0 0 -1
    outer loop
      vertex 8.875 -6.48446 0
      vertex 4.6194 -1.91342 0
      vertex 5 0 0
    endloop
  endfacet
  facet normal 0 0 -1
    outer loop
      vertex 7.125 -6.48446 0
      vertex 3.53553 -3.53553 0
      vertex 4.6194 -1.91342 0
    endloop
  endfacet
  facet normal 0 0 -1
    outer loop
      vertex 0 -5 0
      vertex 6.25 -8 0
      vertex 7.125 -9.51554 0
    endloop
  endfacet
  facet normal 0 0 -1
    outer loop
      vertex 6.25 -8 0
      vertex 1.91342 -4.6194 0
      vertex 3.53553 -3.53553 0
    endloop
  endfacet
  facet normal 0 0 -1
    outer loop
      vertex 6.25 -8 0
      vertex 0 -5 0
      vertex 1.91342 -4.6194 0
    endloop
  endfacet
  facet normal 0 0 -1
    outer loop
      vertex -7.125 -9.51554 0
      vertex 7.125 -9.51554 0
      vertex 8.92705 -10.8532 0
    endloop
  endfacet
  facet normal 0 0 -1
    outer loop
      vertex 7.125 -9.51554 0
      vertex -7.125 -9.51554 0
      vertex 0 -5 0
    endloop
  endfacet
  facet normal -0 0 -1
    outer loop
      vertex -3.53553 -3.53553 0
      vertex -7.125 -6.48446 0
      vertex -4.6194 -1.91342 0
    endloop
  endfacet
  facet normal 0 0 -1
    outer loop
      vertex -7.125 -6.48446 0
      vertex -3.53553 -3.53553 0
      vertex -6.25 -8 0
    endloop
  endfacet
  facet normal -0 0 -1
    outer loop
      vertex -1.91342 -4.6194 0
      vertex -6.25 -8 0
      vertex -3.53553 -3.53553 0
    endloop
  endfacet
  facet normal -0 0 -1
    outer loop
      vertex 0 -5 0
      vertex -6.25 -8 0
      vertex -1.91342 -4.6194 0
    endloop
  endfacet
  facet normal 0 0 -1
    outer loop
      vertex 0 -5 0
      vertex -7.125 -9.51554 0
      vertex -6.25 -8 0
    endloop
  endfacet
  facet normal 0 0 -1
    outer loop
      vertex -8.92705 -10.8532 0
      vertex -7.125 -9.51554 0
      vertex 8.92705 -10.8532 0
    endloop
  endfacet
  facet normal -0 0 -1
    outer loop
      vertex -7.125 -9.51554 0
      vertex -8.92705 -10.8532 0
      vertex -8.875 -9.51554 0
    endloop
  endfacet
  facet normal 0 0 -1
    outer loop
      vertex -10.4271 -9.76336 0
      vertex -8.875 -9.51554 0
      vertex -8.92705 -10.8532 0
    endloop
  endfacet
  facet normal 0 0 -1
    outer loop
      vertex -11 -8 0
      vertex -9.75 -8 0
      vertex -10.4271 -9.76336 0
    endloop
  endfacet
  facet normal -0 0 -1
    outer loop
      vertex -8.875 -9.51554 0
      vertex -10.4271 -9.76336 0
      vertex -9.75 -8 0
    endloop
  endfacet
  facet normal 0 0 -1
    outer loop
      vertex 11 8 0
      vertex 9.75 8 0
      vertex 10.4271 9.76336 0
    endloop
  endfacet
  facet normal 0 0 -1
    outer loop
      vertex 8.875 9.51554 0
      vertex 10.4271 9.76336 0
      vertex 9.75 8 0
    endloop
  endfacet
  facet normal -0 0 -1
    outer loop
      vertex 10.4271 9.76336 0
      vertex 8.875 9.51554 0
      vertex 8.92705 10.8532 0
    endloop
  endfacet
  facet normal 0 0 -1
    outer loop
      vertex 7.125 9.51554 0
      vertex 8.92705 10.8532 0
      vertex 8.875 9.51554 0
    endloop
  endfacet
  facet normal 0 0 -1
    outer loop
      vertex 3.53553 3.53553 0
      vertex 7.125 6.48446 0
      vertex 4.6194 1.91342 0
    endloop
  endfacet
  facet normal -0 0 -1
    outer loop
      vertex 7.125 6.48446 0
      vertex 3.53553 3.53553 0
      vertex 6.25 8 0
    endloop
  endfacet
  facet normal 0 0 -1
    outer loop
      vertex 1.91342 4.6194 0
      vertex 6.25 8 0
      vertex 3.53553 3.53553 0
    endloop
  endfacet
  facet normal 0 0 -1
    outer loop
      vertex 0 5 0
      vertex 6.25 8 0
      vertex 1.91342 4.6194 0
    endloop
  endfacet
  facet normal -0 0 -1
    outer loop
      vertex 6.25 8 0
      vertex 0 5 0
      vertex 7.125 9.51554 0
    endloop
  endfacet
  facet normal 0 0 -1
    outer loop
      vertex -7.125 9.51554 0
      vertex 7.125 9.51554 0
      vertex 0 5 0
    endloop
  endfacet
  facet normal 0 0 -1
    outer loop
      vertex -6.25 8 0
      vertex 0 5 0
      vertex -1.91342 4.6194 0
    endloop
  endfacet
  facet normal 0 0 -1
    outer loop
      vertex -8.875 -6.48446 0
      vertex -4.6194 -1.91342 0
      vertex -7.125 -6.48446 0
    endloop
  endfacet
  facet normal 0 0 -1
    outer loop
      vertex -6.25 8 0
      vertex -4.6194 1.91342 0
      vertex -5 0 0
    endloop
  endfacet
  facet normal 0 0 -1
    outer loop
      vertex -6.25 8 0
      vertex -3.53553 3.53553 0
      vertex -4.6194 1.91342 0
    endloop
  endfacet
  facet normal 0 0 -1
    outer loop
      vertex -6.25 8 0
      vertex -1.91342 4.6194 0
      vertex -3.53553 3.53553 0
    endloop
  endfacet
  facet normal 0 0 -1
    outer loop
      vertex -7.125 9.51554 0
      vertex 0 5 0
      vertex -6.25 8 0
    endloop
  endfacet
  facet normal 0 0 -1
    outer loop
      vertex 7.125 9.51554 0
      vertex -7.125 9.51554 0
      vertex 8.92705 10.8532 0
    endloop
  endfacet
  facet normal 0 0 -1
    outer loop
      vertex -8.92705 10.8532 0
      vertex -7.125 9.51554 0
      vertex -8.875 9.51554 0
    endloop
  endfacet
  facet normal 0 0 -1
    outer loop
      vertex -7.125 9.51554 0
      vertex -8.92705 10.8532 0
      vertex 8.92705 10.8532 0
    endloop
  endfacet
  facet normal 0 0 -1
    outer loop
      vertex -10.4271 9.76336 0
      vertex -8.875 9.51554 0
      vertex -9.75 8 0
    endloop
  endfacet
  facet normal 0 0 -1
    outer loop
      vertex -8.875 9.51554 0
      vertex -10.4271 9.76336 0
      vertex -8.92705 10.8532 0
    endloop
  endfacet
  facet normal 0 0 -1
    outer loop
      vertex -11 8 0
      vertex -8.875 6.48446 0
      vertex -11 -8 0
    endloop
  endfacet
  facet normal 0 0 -1
    outer loop
      vertex -8.875 6.48446 0
      vertex -11 8 0
      vertex -9.75 8 0
    endloop
  endfacet
  facet normal 0 0 -1
    outer loop
      vertex -9.75 8 0
      vertex -11 8 0
      vertex -10.4271 9.76336 0
    endloop
  endfacet
  facet normal -0.587785 -0.809017 0
    outer loop
      vertex -10.4271 -9.76336 0
      vertex -8.92705 -10.8532 3
      vertex -10.4271 -9.76336 3
    endloop
  endfacet
  facet normal -0.587785 -0.809017 -0
    outer loop
      vertex -8.92705 -10.8532 3
      vertex -10.4271 -9.76336 0
      vertex -8.92705 -10.8532 0
    endloop
  endfacet
  facet normal 0.951056 -0.309017 0
    outer loop
      vertex 10.4271 -9.76336 3
      vertex 11 -8 0
      vertex 11 -8 3
    endloop
  endfacet
  facet normal 0.951056 -0.309017 0
    outer loop
      vertex 11 -8 0
      vertex 10.4271 -9.76336 3
      vertex 10.4271 -9.76336 0
    endloop
  endfacet
  facet normal 1 -0 0
    outer loop
      vertex 11 0 3
      vertex 11 8 0
      vertex 11 8 3
    endloop
  endfacet
  facet normal 1 0 0
    outer loop
      vertex 11 -8 0
      vertex 11 0 3
      vertex 11 -8 3
    endloop
  endfacet
  facet normal 1 0 0
    outer loop
      vertex 11 0 3
      vertex 11 -8 0
      vertex 11 8 0
    endloop
  endfacet
  facet normal 0 -1 0
    outer loop
      vertex -8.92705 -10.8532 0
      vertex 8.92705 -10.8532 3
      vertex -8.92705 -10.8532 3
    endloop
  endfacet
  facet normal 0 -1 -0
    outer loop
      vertex 8.92705 -10.8532 3
      vertex -8.92705 -10.8532 0
      vertex 8.92705 -10.8532 0
    endloop
  endfacet
  facet normal 0.587785 -0.809017 0
    outer loop
      vertex 8.92705 -10.8532 0
      vertex 10.4271 -9.76336 3
      vertex 8.92705 -10.8532 3
    endloop
  endfacet
  facet normal 0.587785 -0.809017 0
    outer loop
      vertex 10.4271 -9.76336 3
      vertex 8.92705 -10.8532 0
      vertex 10.4271 -9.76336 0
    endloop
  endfacet
  facet normal -0.951056 0.309017 0
    outer loop
      vertex -11 0 3
      vertex -10.4271 1.76336 8
      vertex -10.4271 1.76336 3
    endloop
  endfacet
  facet normal -0.951056 0.309017 0
    outer loop
      vertex -10.4271 1.76336 8
      vertex -11 0 3
      vertex -11 0 8
    endloop
  endfacet
  facet normal 0 0 1
    outer loop
      vertex 9.45 0 8
      vertex 11 0 8
      vertex 10.4271 1.76336 8
    endloop
  endfacet
  facet normal 0 0 1
    outer loop
      vertex 11 0 8
      vertex 9.45 0 8
      vertex 10.4271 -1.76336 8
    endloop
  endfacet
  facet normal 0 0 1
    outer loop
      vertex 8.44807 1.37903 8
      vertex 10.4271 1.76336 8
      vertex 8.92705 2.85317 8
    endloop
  endfacet
  facet normal 0 0 1
    outer loop
      vertex 10.4271 1.76336 8
      vertex 8.44807 1.37903 8
      vertex 9.45 0 8
    endloop
  endfacet
  facet normal 0 0 1
    outer loop
      vertex 8.92705 2.85317 8
      vertex 6.82693 0.852288 8
      vertex 8.44807 1.37903 8
    endloop
  endfacet
  facet normal 0 0 1
    outer loop
      vertex 6.82693 0.852288 8
      vertex 5 0 8
      vertex 6.82693 -0.852288 8
    endloop
  endfacet
  facet normal -0 0 1
    outer loop
      vertex 4.6194 1.91342 8
      vertex 6.82693 0.852288 8
      vertex 8.92705 2.85317 8
    endloop
  endfacet
  facet normal 0 0 1
    outer loop
      vertex 6.82693 0.852288 8
      vertex 4.6194 1.91342 8
      vertex 5 0 8
    endloop
  endfacet
  facet normal 0 0 1
    outer loop
      vertex 8.92705 2.85317 8
      vertex 3.53553 3.53553 8
      vertex 4.6194 1.91342 8
    endloop
  endfacet
  facet normal 0 0 1
    outer loop
      vertex 2.9079 6.36742 8
      vertex 3.53553 3.53553 8
      vertex 8.92705 2.85317 8
    endloop
  endfacet
  facet normal 0 0 1
    outer loop
      vertex 2.9079 6.36742 8
      vertex 1.91342 4.6194 8
      vertex 3.53553 3.53553 8
    endloop
  endfacet
  facet normal 0 0 1
    outer loop
      vertex 0.996203 6.92875 8
      vertex 1.91342 4.6194 8
      vertex 2.9079 6.36742 8
    endloop
  endfacet
  facet normal 0 0 1
    outer loop
      vertex 0.996203 6.92875 8
      vertex 0 5 8
      vertex 1.91342 4.6194 8
    endloop
  endfacet
  facet normal -0 0 1
    outer loop
      vertex -0.996203 6.92875 8
      vertex 0 5 8
      vertex 0.996203 6.92875 8
    endloop
  endfacet
  facet normal 0 0 1
    outer loop
      vertex -0.996203 6.92875 8
      vertex -1.91342 4.6194 8
      vertex 0 5 8
    endloop
  endfacet
  facet normal -0 0 1
    outer loop
      vertex -2.9079 6.36742 8
      vertex -1.91342 4.6194 8
      vertex -0.996203 6.92875 8
    endloop
  endfacet
  facet normal 0 0 1
    outer loop
      vertex -2.9079 6.36742 8
      vertex -3.53553 3.53553 8
      vertex -1.91342 4.6194 8
    endloop
  endfacet
  facet normal 0 0 1
    outer loop
      vertex -8.92705 2.85317 8
      vertex -3.53553 3.53553 8
      vertex -2.9079 6.36742 8
    endloop
  endfacet
  facet normal 0 0 1
    outer loop
      vertex -4.6194 1.91342 8
      vertex -6.82693 0.852288 8
      vertex -5 0 8
    endloop
  endfacet
  facet normal 0 0 1
    outer loop
      vertex -3.53553 3.53553 8
      vertex -8.92705 2.85317 8
      vertex -4.6194 1.91342 8
    endloop
  endfacet
  facet normal 0 0 1
    outer loop
      vertex -4.6194 1.91342 8
      vertex -8.92705 2.85317 8
      vertex -6.82693 0.852288 8
    endloop
  endfacet
  facet normal 0 0 1
    outer loop
      vertex -6.82693 0.852288 8
      vertex -8.92705 2.85317 8
      vertex -8.44807 1.37903 8
    endloop
  endfacet
  facet normal -0 0 1
    outer loop
      vertex -10.4271 1.76336 8
      vertex -8.44807 1.37903 8
      vertex -8.92705 2.85317 8
    endloop
  endfacet
  facet normal 0 0 1
    outer loop
      vertex -8.44807 1.37903 8
      vertex -10.4271 1.76336 8
      vertex -9.45 0 8
    endloop
  endfacet
  facet normal -0 0 1
    outer loop
      vertex 8.44807 -1.37903 8
      vertex 10.4271 -1.76336 8
      vertex 9.45 0 8
    endloop
  endfacet
  facet normal 0 0 1
    outer loop
      vertex 10.4271 -1.76336 8
      vertex 8.44807 -1.37903 8
      vertex 8.92705 -2.85317 8
    endloop
  endfacet
  facet normal 0 0 1
    outer loop
      vertex 6.82693 -0.852288 8
      vertex 8.92705 -2.85317 8
      vertex 8.44807 -1.37903 8
    endloop
  endfacet
  facet normal 0 0 1
    outer loop
      vertex 4.6194 -1.91342 8
      vertex 6.82693 -0.852288 8
      vertex 5 0 8
    endloop
  endfacet
  facet normal 0 0 1
    outer loop
      vertex 6.82693 -0.852288 8
      vertex 4.6194 -1.91342 8
      vertex 8.92705 -2.85317 8
    endloop
  endfacet
  facet normal 0 0 1
    outer loop
      vertex 3.53553 -3.53553 8
      vertex 8.92705 -2.85317 8
      vertex 4.6194 -1.91342 8
    endloop
  endfacet
  facet normal -0 0 1
    outer loop
      vertex 3.53553 -3.53553 8
      vertex 2.9079 -6.36742 8
      vertex 8.92705 -2.85317 8
    endloop
  endfacet
  facet normal -0 0 1
    outer loop
      vertex 1.91342 -4.6194 8
      vertex 2.9079 -6.36742 8
      vertex 3.53553 -3.53553 8
    endloop
  endfacet
  facet normal 0 0 1
    outer loop
      vertex 1.91342 -4.6194 8
      vertex 0.996203 -6.92875 8
      vertex 2.9079 -6.36742 8
    endloop
  endfacet
  facet normal -0 0 1
    outer loop
      vertex 0 -5 8
      vertex 0.996203 -6.92875 8
      vertex 1.91342 -4.6194 8
    endloop
  endfacet
  facet normal 0 0 1
    outer loop
      vertex 0 -5 8
      vertex -0.996203 -6.92875 8
      vertex 0.996203 -6.92875 8
    endloop
  endfacet
  facet normal 0 0 1
    outer loop
      vertex -1.91342 -4.6194 8
      vertex -0.996203 -6.92875 8
      vertex 0 -5 8
    endloop
  endfacet
  facet normal 0 0 1
    outer loop
      vertex -1.91342 -4.6194 8
      vertex -2.9079 -6.36742 8
      vertex -0.996203 -6.92875 8
    endloop
  endfacet
  facet normal 0 0 1
    outer loop
      vertex -3.53553 -3.53553 8
      vertex -2.9079 -6.36742 8
      vertex -1.91342 -4.6194 8
    endloop
  endfacet
  facet normal -0 0 1
    outer loop
      vertex -8.92705 -2.85317 8
      vertex -3.53553 -3.53553 8
      vertex -4.6194 -1.91342 8
    endloop
  endfacet
  facet normal 0 0 1
    outer loop
      vertex -6.82693 -0.852288 8
      vertex -5 0 8
      vertex -6.82693 0.852288 8
    endloop
  endfacet
  facet normal 0 0 1
    outer loop
      vertex -5 0 8
      vertex -6.82693 -0.852288 8
      vertex -4.6194 -1.91342 8
    endloop
  endfacet
  facet normal 0 0 1
    outer loop
      vertex -8.92705 -2.85317 8
      vertex -4.6194 -1.91342 8
      vertex -6.82693 -0.852288 8
    endloop
  endfacet
  facet normal 0 0 1
    outer loop
      vertex -8.92705 -2.85317 8
      vertex -6.82693 -0.852288 8
      vertex -8.44807 -1.37903 8
    endloop
  endfacet
  facet normal 0 0 1
    outer loop
      vertex -3.53553 -3.53553 8
      vertex -8.92705 -2.85317 8
      vertex -2.9079 -6.36742 8
    endloop
  endfacet
  facet normal 0 0 1
    outer loop
      vertex -10.4271 -1.76336 8
      vertex -8.44807 -1.37903 8
      vertex -9.45 0 8
    endloop
  endfacet
  facet normal 0 0 1
    outer loop
      vertex -11 0 8
      vertex -9.45 0 8
      vertex -10.4271 1.76336 8
    endloop
  endfacet
  facet normal 0 0 1
    outer loop
      vertex -8.44807 -1.37903 8
      vertex -10.4271 -1.76336 8
      vertex -8.92705 -2.85317 8
    endloop
  endfacet
  facet normal 0 0 1
    outer loop
      vertex -9.45 0 8
      vertex -11 0 8
      vertex -10.4271 -1.76336 8
    endloop
  endfacet
  facet normal 0.951056 0.309017 0
    outer loop
      vertex 11 0 8
      vertex 10.4271 1.76336 3
      vertex 10.4271 1.76336 8
    endloop
  endfacet
  facet normal 0.951056 0.309017 0
    outer loop
      vertex 10.4271 1.76336 3
      vertex 11 0 8
      vertex 11 0 3
    endloop
  endfacet
  facet normal 0.951056 -0.309017 0
    outer loop
      vertex 10.4271 -1.76336 8
      vertex 11 0 3
      vertex 11 0 8
    endloop
  endfacet
  facet normal 0.951056 -0.309017 0
    outer loop
      vertex 11 0 3
      vertex 10.4271 -1.76336 8
      vertex 10.4271 -1.76336 3
    endloop
  endfacet
  facet normal 0 -1 0
    outer loop
      vertex -0.996203 -6.92875 3
      vertex 0.996203 -6.92875 8
      vertex -0.996203 -6.92875 8
    endloop
  endfacet
  facet normal 0 -1 -0
    outer loop
      vertex 0.996203 -6.92875 8
      vertex -0.996203 -6.92875 3
      vertex 0.996203 -6.92875 3
    endloop
  endfacet
  facet normal -0.951056 -0.309017 0
    outer loop
      vertex -10.4271 -1.76336 3
      vertex -11 0 8
      vertex -11 0 3
    endloop
  endfacet
  facet normal -0.951056 -0.309017 0
    outer loop
      vertex -11 0 8
      vertex -10.4271 -1.76336 3
      vertex -10.4271 -1.76336 8
    endloop
  endfacet
  facet normal 0.587785 -0.809017 0
    outer loop
      vertex 8.92705 -2.85317 3
      vertex 10.4271 -1.76336 8
      vertex 8.92705 -2.85317 8
    endloop
  endfacet
  facet normal 0.587785 -0.809017 0
    outer loop
      vertex 10.4271 -1.76336 8
      vertex 8.92705 -2.85317 3
      vertex 10.4271 -1.76336 3
    endloop
  endfacet
  facet normal -0.281733 -0.959493 0
    outer loop
      vertex -2.9079 -6.36742 3
      vertex -0.996203 -6.92875 8
      vertex -2.9079 -6.36742 8
    endloop
  endfacet
  facet normal -0.281733 -0.959493 -0
    outer loop
      vertex -0.996203 -6.92875 8
      vertex -2.9079 -6.36742 3
      vertex -0.996203 -6.92875 3
    endloop
  endfacet
  facet normal -0.504201 -0.863586 0
    outer loop
      vertex -8.92705 -2.85317 3
      vertex -2.9079 -6.36742 8
      vertex -8.92705 -2.85317 8
    endloop
  endfacet
  facet normal -0.504201 -0.863586 -0
    outer loop
      vertex -2.9079 -6.36742 8
      vertex -8.92705 -2.85317 3
      vertex -2.9079 -6.36742 3
    endloop
  endfacet
  facet normal -0.281733 0.959493 0
    outer loop
      vertex -0.996203 6.92875 3
      vertex -2.9079 6.36742 8
      vertex -0.996203 6.92875 8
    endloop
  endfacet
  facet normal -0.281733 0.959493 0
    outer loop
      vertex -2.9079 6.36742 8
      vertex -0.996203 6.92875 3
      vertex -2.9079 6.36742 3
    endloop
  endfacet
  facet normal 0.504201 -0.863586 0
    outer loop
      vertex 2.9079 -6.36742 3
      vertex 8.92705 -2.85317 8
      vertex 2.9079 -6.36742 8
    endloop
  endfacet
  facet normal 0.504201 -0.863586 0
    outer loop
      vertex 8.92705 -2.85317 8
      vertex 2.9079 -6.36742 3
      vertex 8.92705 -2.85317 3
    endloop
  endfacet
  facet normal -0.587785 -0.809017 0
    outer loop
      vertex -10.4271 -1.76336 3
      vertex -8.92705 -2.85317 8
      vertex -10.4271 -1.76336 8
    endloop
  endfacet
  facet normal -0.587785 -0.809017 -0
    outer loop
      vertex -8.92705 -2.85317 8
      vertex -10.4271 -1.76336 3
      vertex -8.92705 -2.85317 3
    endloop
  endfacet
  facet normal -0.587785 0.809017 0
    outer loop
      vertex -8.92705 2.85317 3
      vertex -10.4271 1.76336 8
      vertex -8.92705 2.85317 8
    endloop
  endfacet
  facet normal -0.587785 0.809017 0
    outer loop
      vertex -10.4271 1.76336 8
      vertex -8.92705 2.85317 3
      vertex -10.4271 1.76336 3
    endloop
  endfacet
  facet normal -0.504201 0.863586 0
    outer loop
      vertex -2.9079 6.36742 3
      vertex -8.92705 2.85317 8
      vertex -2.9079 6.36742 8
    endloop
  endfacet
  facet normal -0.504201 0.863586 0
    outer loop
      vertex -8.92705 2.85317 8
      vertex -2.9079 6.36742 3
      vertex -8.92705 2.85317 3
    endloop
  endfacet
  facet normal 0 1 -0
    outer loop
      vertex 0.996203 6.92875 3
      vertex -0.996203 6.92875 8
      vertex 0.996203 6.92875 8
    endloop
  endfacet
  facet normal 0 1 0
    outer loop
      vertex -0.996203 6.92875 8
      vertex 0.996203 6.92875 3
      vertex -0.996203 6.92875 3
    endloop
  endfacet
  facet normal 0.281733 0.959493 -0
    outer loop
      vertex 2.9079 6.36742 3
      vertex 0.996203 6.92875 8
      vertex 2.9079 6.36742 8
    endloop
  endfacet
  facet normal 0.281733 0.959493 0
    outer loop
      vertex 0.996203 6.92875 8
      vertex 2.9079 6.36742 3
      vertex 0.996203 6.92875 3
    endloop
  endfacet
  facet normal 0.281733 -0.959493 0
    outer loop
      vertex 0.996203 -6.92875 3
      vertex 2.9079 -6.36742 8
      vertex 0.996203 -6.92875 8
    endloop
  endfacet
  facet normal 0.281733 -0.959493 0
    outer loop
      vertex 2.9079 -6.36742 8
      vertex 0.996203 -6.92875 3
      vertex 2.9079 -6.36742 3
    endloop
  endfacet
  facet normal 0.504201 0.863586 -0
    outer loop
      vertex 8.92705 2.85317 3
      vertex 2.9079 6.36742 8
      vertex 8.92705 2.85317 8
    endloop
  endfacet
  facet normal 0.504201 0.863586 0
    outer loop
      vertex 2.9079 6.36742 8
      vertex 8.92705 2.85317 3
      vertex 2.9079 6.36742 3
    endloop
  endfacet
  facet normal 0.587785 0.809017 -0
    outer loop
      vertex 10.4271 1.76336 3
      vertex 8.92705 2.85317 8
      vertex 10.4271 1.76336 8
    endloop
  endfacet
  facet normal 0.587785 0.809017 0
    outer loop
      vertex 8.92705 2.85317 8
      vertex 10.4271 1.76336 3
      vertex 8.92705 2.85317 3
    endloop
  endfacet
  facet normal -0.809017 -0.587786 0
    outer loop
      vertex 9.45 0 1
      vertex 8.44807 1.37903 8
      vertex 8.44807 1.37903 1
    endloop
  endfacet
  facet normal -0.809017 -0.587786 0
    outer loop
      vertex 8.44807 1.37903 8
      vertex 9.45 0 1
      vertex 9.45 0 8
    endloop
  endfacet
  facet normal 1 -0 0
    outer loop
      vertex 6.82693 -0.852288 8
      vertex 6.82693 0.852288 1
      vertex 6.82693 0.852288 8
    endloop
  endfacet
  facet normal 1 0 0
    outer loop
      vertex 6.82693 0.852288 1
      vertex 6.82693 -0.852288 8
      vertex 6.82693 -0.852288 1
    endloop
  endfacet
  facet normal 0.309017 -0.951057 0
    outer loop
      vertex 6.82693 0.852288 1
      vertex 8.44807 1.37903 8
      vertex 6.82693 0.852288 8
    endloop
  endfacet
  facet normal 0.309017 -0.951057 0
    outer loop
      vertex 8.44807 1.37903 8
      vertex 6.82693 0.852288 1
      vertex 8.44807 1.37903 1
    endloop
  endfacet
  facet normal 0 0 1
    outer loop
      vertex 8.44807 1.37903 1
      vertex 8.44807 -1.37903 1
      vertex 9.45 0 1
    endloop
  endfacet
  facet normal -0 0 1
    outer loop
      vertex 6.82693 0.852288 1
      vertex 8.44807 -1.37903 1
      vertex 8.44807 1.37903 1
    endloop
  endfacet
  facet normal 0 0 1
    outer loop
      vertex 8.44807 -1.37903 1
      vertex 6.82693 0.852288 1
      vertex 6.82693 -0.852288 1
    endloop
  endfacet
  facet normal -0.809017 0.587786 0
    outer loop
      vertex 8.44807 -1.37903 1
      vertex 9.45 0 8
      vertex 9.45 0 1
    endloop
  endfacet
  facet normal -0.809017 0.587786 0
    outer loop
      vertex 9.45 0 8
      vertex 8.44807 -1.37903 1
      vertex 8.44807 -1.37903 8
    endloop
  endfacet
  facet normal 0.309017 0.951057 -0
    outer loop
      vertex 8.44807 -1.37903 1
      vertex 6.82693 -0.852288 8
      vertex 8.44807 -1.37903 8
    endloop
  endfacet
  facet normal 0.309017 0.951057 0
    outer loop
      vertex 6.82693 -0.852288 8
      vertex 8.44807 -1.37903 1
      vertex 6.82693 -0.852288 1
    endloop
  endfacet
  facet normal 0.809017 -0.587786 0
    outer loop
      vertex -9.45 0 8
      vertex -8.44807 1.37903 1
      vertex -8.44807 1.37903 8
    endloop
  endfacet
  facet normal 0.809017 -0.587786 0
    outer loop
      vertex -8.44807 1.37903 1
      vertex -9.45 0 8
      vertex -9.45 0 1
    endloop
  endfacet
  facet normal 0.809017 0.587786 0
    outer loop
      vertex -8.44807 -1.37903 8
      vertex -9.45 0 1
      vertex -9.45 0 8
    endloop
  endfacet
  facet normal 0.809017 0.587786 0
    outer loop
      vertex -9.45 0 1
      vertex -8.44807 -1.37903 8
      vertex -8.44807 -1.37903 1
    endloop
  endfacet
  facet normal -0.309017 0.951057 0
    outer loop
      vertex -6.82693 -0.852288 1
      vertex -8.44807 -1.37903 8
      vertex -6.82693 -0.852288 8
    endloop
  endfacet
  facet normal -0.309017 0.951057 0
    outer loop
      vertex -8.44807 -1.37903 8
      vertex -6.82693 -0.852288 1
      vertex -8.44807 -1.37903 1
    endloop
  endfacet
  facet normal -0.309017 -0.951057 0
    outer loop
      vertex -8.44807 1.37903 1
      vertex -6.82693 0.852288 8
      vertex -8.44807 1.37903 8
    endloop
  endfacet
  facet normal -0.309017 -0.951057 -0
    outer loop
      vertex -6.82693 0.852288 8
      vertex -8.44807 1.37903 1
      vertex -6.82693 0.852288 1
    endloop
  endfacet
  facet normal 0 0 1
    outer loop
      vertex -8.44807 1.37903 1
      vertex -6.82693 -0.852288 1
      vertex -6.82693 0.852288 1
    endloop
  endfacet
  facet normal 0 0 1
    outer loop
      vertex -8.44807 1.37903 1
      vertex -8.44807 -1.37903 1
      vertex -6.82693 -0.852288 1
    endloop
  endfacet
  facet normal 0 -0 1
    outer loop
      vertex -8.44807 -1.37903 1
      vertex -8.44807 1.37903 1
      vertex -9.45 0 1
    endloop
  endfacet
  facet normal -1 0 0
    outer loop
      vertex -6.82693 -0.852288 1
      vertex -6.82693 0.852288 8
      vertex -6.82693 0.852288 1
    endloop
  endfacet
  facet normal -1 -0 0
    outer loop
      vertex -6.82693 0.852288 8
      vertex -6.82693 -0.852288 1
      vertex -6.82693 -0.852288 8
    endloop
  endfacet
  facet normal -0.980785 -0.195091 0
    outer loop
      vertex 5 0 0
      vertex 4.6194 1.91342 8
      vertex 4.6194 1.91342 0
    endloop
  endfacet
  facet normal -0.980785 -0.195091 0
    outer loop
      vertex 4.6194 1.91342 8
      vertex 5 0 0
      vertex 5 0 8
    endloop
  endfacet
  facet normal 0.980785 -0.195091 0
    outer loop
      vertex -5 0 8
      vertex -4.6194 1.91342 0
      vertex -4.6194 1.91342 8
    endloop
  endfacet
  facet normal 0.980785 -0.195091 0
    outer loop
      vertex -4.6194 1.91342 0
      vertex -5 0 8
      vertex -5 0 0
    endloop
  endfacet
  facet normal -0.195091 -0.980785 0
    outer loop
      vertex 0 5 0
      vertex 1.91342 4.6194 8
      vertex 0 5 8
    endloop
  endfacet
  facet normal -0.195091 -0.980785 -0
    outer loop
      vertex 1.91342 4.6194 8
      vertex 0 5 0
      vertex 1.91342 4.6194 0
    endloop
  endfacet
  facet normal -0.83147 -0.55557 0
    outer loop
      vertex 4.6194 1.91342 0
      vertex 3.53553 3.53553 8
      vertex 3.53553 3.53553 0
    endloop
  endfacet
  facet normal -0.83147 -0.55557 0
    outer loop
      vertex 3.53553 3.53553 8
      vertex 4.6194 1.91342 0
      vertex 4.6194 1.91342 8
    endloop
  endfacet
  facet normal -0.195091 0.980785 0
    outer loop
      vertex 1.91342 -4.6194 0
      vertex 0 -5 8
      vertex 1.91342 -4.6194 8
    endloop
  endfacet
  facet normal -0.195091 0.980785 0
    outer loop
      vertex 0 -5 8
      vertex 1.91342 -4.6194 0
      vertex 0 -5 0
    endloop
  endfacet
  facet normal 0.195091 0.980785 -0
    outer loop
      vertex 0 -5 0
      vertex -1.91342 -4.6194 8
      vertex 0 -5 8
    endloop
  endfacet
  facet normal 0.195091 0.980785 0
    outer loop
      vertex -1.91342 -4.6194 8
      vertex 0 -5 0
      vertex -1.91342 -4.6194 0
    endloop
  endfacet
  facet normal -0.55557 -0.83147 0
    outer loop
      vertex 1.91342 4.6194 0
      vertex 3.53553 3.53553 8
      vertex 1.91342 4.6194 8
    endloop
  endfacet
  facet normal -0.55557 -0.83147 -0
    outer loop
      vertex 3.53553 3.53553 8
      vertex 1.91342 4.6194 0
      vertex 3.53553 3.53553 0
    endloop
  endfacet
  facet normal 0.195091 -0.980785 0
    outer loop
      vertex -1.91342 4.6194 0
      vertex 0 5 8
      vertex -1.91342 4.6194 8
    endloop
  endfacet
  facet normal 0.195091 -0.980785 0
    outer loop
      vertex 0 5 8
      vertex -1.91342 4.6194 0
      vertex 0 5 0
    endloop
  endfacet
  facet normal 0.55557 -0.83147 0
    outer loop
      vertex -3.53553 3.53553 0
      vertex -1.91342 4.6194 8
      vertex -3.53553 3.53553 8
    endloop
  endfacet
  facet normal 0.55557 -0.83147 0
    outer loop
      vertex -1.91342 4.6194 8
      vertex -3.53553 3.53553 0
      vertex -1.91342 4.6194 0
    endloop
  endfacet
  facet normal 0.980785 0.195091 0
    outer loop
      vertex -4.6194 -1.91342 8
      vertex -5 0 0
      vertex -5 0 8
    endloop
  endfacet
  facet normal 0.980785 0.195091 0
    outer loop
      vertex -5 0 0
      vertex -4.6194 -1.91342 8
      vertex -4.6194 -1.91342 0
    endloop
  endfacet
  facet normal 0.55557 0.83147 -0
    outer loop
      vertex -1.91342 -4.6194 0
      vertex -3.53553 -3.53553 8
      vertex -1.91342 -4.6194 8
    endloop
  endfacet
  facet normal 0.55557 0.83147 0
    outer loop
      vertex -3.53553 -3.53553 8
      vertex -1.91342 -4.6194 0
      vertex -3.53553 -3.53553 0
    endloop
  endfacet
  facet normal 0.83147 0.55557 0
    outer loop
      vertex -3.53553 -3.53553 8
      vertex -4.6194 -1.91342 0
      vertex -4.6194 -1.91342 8
    endloop
  endfacet
  facet normal 0.83147 0.55557 0
    outer loop
      vertex -4.6194 -1.91342 0
      vertex -3.53553 -3.53553 8
      vertex -3.53553 -3.53553 0
    endloop
  endfacet
  facet normal 0.83147 -0.55557 0
    outer loop
      vertex -4.6194 1.91342 8
      vertex -3.53553 3.53553 0
      vertex -3.53553 3.53553 8
    endloop
  endfacet
  facet normal 0.83147 -0.55557 0
    outer loop
      vertex -3.53553 3.53553 0
      vertex -4.6194 1.91342 8
      vertex -4.6194 1.91342 0
    endloop
  endfacet
  facet normal -0.83147 0.55557 0
    outer loop
      vertex 3.53553 -3.53553 0
      vertex 4.6194 -1.91342 8
      vertex 4.6194 -1.91342 0
    endloop
  endfacet
  facet normal -0.83147 0.55557 0
    outer loop
      vertex 4.6194 -1.91342 8
      vertex 3.53553 -3.53553 0
      vertex 3.53553 -3.53553 8
    endloop
  endfacet
  facet normal -0.55557 0.83147 0
    outer loop
      vertex 3.53553 -3.53553 0
      vertex 1.91342 -4.6194 8
      vertex 3.53553 -3.53553 8
    endloop
  endfacet
  facet normal -0.55557 0.83147 0
    outer loop
      vertex 1.91342 -4.6194 8
      vertex 3.53553 -3.53553 0
      vertex 1.91342 -4.6194 0
    endloop
  endfacet
  facet normal -0.980785 0.195091 0
    outer loop
      vertex 4.6194 -1.91342 0
      vertex 5 0 8
      vertex 5 0 0
    endloop
  endfacet
  facet normal -0.980785 0.195091 0
    outer loop
      vertex 5 0 8
      vertex 4.6194 -1.91342 0
      vertex 4.6194 -1.91342 8
    endloop
  endfacet
endsolid OpenSCAD_Model
