solid OpenSCAD_Model
  facet normal -0.866025 -0.5 0
    outer loop
      vertex 9.75 0 0
      vertex 8.875 1.51554 3
      vertex 8.875 1.51554 0
    endloop
  endfacet
  facet normal -0.866025 -0.5 0
    outer loop
      vertex 8.875 1.51554 3
      vertex 9.75 0 0
      vertex 9.75 0 3
    endloop
  endfacet
  facet normal 0 -1 0
    outer loop
      vertex 7.125 1.51554 0
      vertex 8.875 1.51554 3
      vertex 7.125 1.51554 3
    endloop
  endfacet
  facet normal 0 -1 -0
    outer loop
      vertex 8.875 1.51554 3
      vertex 7.125 1.51554 0
      vertex 8.875 1.51554 0
    endloop
  endfacet
  facet normal 0 1 -0
    outer loop
      vertex 8.875 -1.51554 0
      vertex 7.125 -1.51554 3
      vertex 8.875 -1.51554 3
    endloop
  endfacet
  facet normal 0 1 0
    outer loop
      vertex 7.125 -1.51554 3
      vertex 8.875 -1.51554 0
      vertex 7.125 -1.51554 0
    endloop
  endfacet
  facet normal 0.866025 -0.5 0
    outer loop
      vertex 6.25 0 3
      vertex 7.125 1.51554 0
      vertex 7.125 1.51554 3
    endloop
  endfacet
  facet normal 0.866025 -0.5 0
    outer loop
      vertex 7.125 1.51554 0
      vertex 6.25 0 3
      vertex 6.25 0 0
    endloop
  endfacet
  facet normal -0.866025 0.5 0
    outer loop
      vertex 8.875 -1.51554 0
      vertex 9.75 0 3
      vertex 9.75 0 0
    endloop
  endfacet
  facet normal -0.866025 0.5 0
    outer loop
      vertex 9.75 0 3
      vertex 8.875 -1.51554 0
      vertex 8.875 -1.51554 3
    endloop
  endfacet
  facet normal 0.866026 0.5 0
    outer loop
      vertex 7.125 -1.51554 3
      vertex 6.25 0 0
      vertex 6.25 0 3
    endloop
  endfacet
  facet normal 0.866026 0.5 0
    outer loop
      vertex 6.25 0 0
      vertex 7.125 -1.51554 3
      vertex 7.125 -1.51554 0
    endloop
  endfacet
  facet normal 0.866025 -0.5 0
    outer loop
      vertex -9.75 0 3
      vertex -8.875 1.51554 0
      vertex -8.875 1.51554 3
    endloop
  endfacet
  facet normal 0.866025 -0.5 0
    outer loop
      vertex -8.875 1.51554 0
      vertex -9.75 0 3
      vertex -9.75 0 0
    endloop
  endfacet
  facet normal 0.866025 0.5 0
    outer loop
      vertex -8.875 -1.51554 3
      vertex -9.75 0 0
      vertex -9.75 0 3
    endloop
  endfacet
  facet normal 0.866025 0.5 0
    outer loop
      vertex -9.75 0 0
      vertex -8.875 -1.51554 3
      vertex -8.875 -1.51554 0
    endloop
  endfacet
  facet normal 0 1 -0
    outer loop
      vertex -7.125 -1.51554 0
      vertex -8.875 -1.51554 3
      vertex -7.125 -1.51554 3
    endloop
  endfacet
  facet normal 0 1 0
    outer loop
      vertex -8.875 -1.51554 3
      vertex -7.125 -1.51554 0
      vertex -8.875 -1.51554 0
    endloop
  endfacet
  facet normal 0 -1 0
    outer loop
      vertex -8.875 1.51554 0
      vertex -7.125 1.51554 3
      vertex -8.875 1.51554 3
    endloop
  endfacet
  facet normal 0 -1 -0
    outer loop
      vertex -7.125 1.51554 3
      vertex -8.875 1.51554 0
      vertex -7.125 1.51554 0
    endloop
  endfacet
  facet normal -0.866026 0.5 0
    outer loop
      vertex -7.125 -1.51554 0
      vertex -6.25 0 3
      vertex -6.25 0 0
    endloop
  endfacet
  facet normal -0.866026 0.5 0
    outer loop
      vertex -6.25 0 3
      vertex -7.125 -1.51554 0
      vertex -7.125 -1.51554 3
    endloop
  endfacet
  facet normal -0.866025 -0.5 0
    outer loop
      vertex -6.25 0 0
      vertex -7.125 1.51554 3
      vertex -7.125 1.51554 0
    endloop
  endfacet
  facet normal -0.866025 -0.5 0
    outer loop
      vertex -7.125 1.51554 3
      vertex -6.25 0 0
      vertex -6.25 0 3
    endloop
  endfacet
  facet normal -0.951056 0.309017 0
    outer loop
      vertex -11 0 0
      vertex -10.4271 1.76336 3
      vertex -10.4271 1.76336 0
    endloop
  endfacet
  facet normal -0.951056 0.309017 0
    outer loop
      vertex -10.4271 1.76336 3
      vertex -11 0 0
      vertex -11 0 3
    endloop
  endfacet
  facet normal 0.951056 0.309017 0
    outer loop
      vertex 11 0 3
      vertex 10.4271 1.76336 0
      vertex 10.4271 1.76336 3
    endloop
  endfacet
  facet normal 0.951056 0.309017 0
    outer loop
      vertex 10.4271 1.76336 0
      vertex 11 0 3
      vertex 11 0 0
    endloop
  endfacet
  facet normal -0.587785 0.809017 0
    outer loop
      vertex -8.92705 2.85317 0
      vertex -10.4271 1.76336 3
      vertex -8.92705 2.85317 3
    endloop
  endfacet
  facet normal -0.587785 0.809017 0
    outer loop
      vertex -10.4271 1.76336 3
      vertex -8.92705 2.85317 0
      vertex -10.4271 1.76336 0
    endloop
  endfacet
  facet normal -0 0 1
    outer loop
      vertex -7.125 -1.51554 3
      vertex -2.9079 -6.36742 3
      vertex -6.25 0 3
    endloop
  endfacet
  facet normal 0 0 1
    outer loop
      vertex -8.92705 -2.85317 3
      vertex -7.125 -1.51554 3
      vertex -8.875 -1.51554 3
    endloop
  endfacet
  facet normal 0 0 1
    outer loop
      vertex -7.125 -1.51554 3
      vertex -8.92705 -2.85317 3
      vertex -2.9079 -6.36742 3
    endloop
  endfacet
  facet normal 0 0 1
    outer loop
      vertex -10.4271 -1.76336 3
      vertex -8.875 -1.51554 3
      vertex -9.75 0 3
    endloop
  endfacet
  facet normal 0 0 1
    outer loop
      vertex -11 0 3
      vertex -9.75 0 3
      vertex -10.4271 1.76336 3
    endloop
  endfacet
  facet normal 0 0 1
    outer loop
      vertex -8.875 -1.51554 3
      vertex -10.4271 -1.76336 3
      vertex -8.92705 -2.85317 3
    endloop
  endfacet
  facet normal 0 0 1
    outer loop
      vertex -9.75 0 3
      vertex -11 0 3
      vertex -10.4271 -1.76336 3
    endloop
  endfacet
  facet normal 0 0 1
    outer loop
      vertex 9.75 0 3
      vertex 11 0 3
      vertex 10.4271 1.76336 3
    endloop
  endfacet
  facet normal 0 0 1
    outer loop
      vertex 11 0 3
      vertex 9.75 0 3
      vertex 10.4271 -1.76336 3
    endloop
  endfacet
  facet normal 0 0 1
    outer loop
      vertex 8.875 1.51554 3
      vertex 10.4271 1.76336 3
      vertex 8.92705 2.85317 3
    endloop
  endfacet
  facet normal 0 0 1
    outer loop
      vertex 10.4271 1.76336 3
      vertex 8.875 1.51554 3
      vertex 9.75 0 3
    endloop
  endfacet
  facet normal 0 0 1
    outer loop
      vertex 8.92705 2.85317 3
      vertex 7.125 1.51554 3
      vertex 8.875 1.51554 3
    endloop
  endfacet
  facet normal 0 0 1
    outer loop
      vertex 7.125 1.51554 3
      vertex 2.9079 6.36742 3
      vertex 6.25 0 3
    endloop
  endfacet
  facet normal 0 0 1
    outer loop
      vertex 2.9079 6.36742 3
      vertex 7.125 1.51554 3
      vertex 8.92705 2.85317 3
    endloop
  endfacet
  facet normal -0 0 1
    outer loop
      vertex 8.875 -1.51554 3
      vertex 10.4271 -1.76336 3
      vertex 9.75 0 3
    endloop
  endfacet
  facet normal 0 0 1
    outer loop
      vertex 10.4271 -1.76336 3
      vertex 8.875 -1.51554 3
      vertex 8.92705 -2.85317 3
    endloop
  endfacet
  facet normal -0 0 1
    outer loop
      vertex 7.125 -1.51554 3
      vertex 8.92705 -2.85317 3
      vertex 8.875 -1.51554 3
    endloop
  endfacet
  facet normal 0 0 1
    outer loop
      vertex 7.125 -1.51554 3
      vertex 2.9079 -6.36742 3
      vertex 8.92705 -2.85317 3
    endloop
  endfacet
  facet normal 0 0 1
    outer loop
      vertex 6.25 0 3
      vertex 2.9079 -6.36742 3
      vertex 7.125 -1.51554 3
    endloop
  endfacet
  facet normal 0 0 1
    outer loop
      vertex 0.996203 6.92875 3
      vertex 6.25 0 3
      vertex 2.9079 6.36742 3
    endloop
  endfacet
  facet normal 0 0 1
    outer loop
      vertex 6.25 0 3
      vertex 0.996203 6.92875 3
      vertex -6.25 0 3
    endloop
  endfacet
  facet normal 0 -0 1
    outer loop
      vertex 0.996203 -6.92875 3
      vertex 6.25 0 3
      vertex -6.25 0 3
    endloop
  endfacet
  facet normal 0 0 1
    outer loop
      vertex -6.25 0 3
      vertex 0.996203 6.92875 3
      vertex -0.996203 6.92875 3
    endloop
  endfacet
  facet normal 0 0 1
    outer loop
      vertex 6.25 0 3
      vertex 0.996203 -6.92875 3
      vertex 2.9079 -6.36742 3
    endloop
  endfacet
  facet normal 0 0 1
    outer loop
      vertex -6.25 0 3
      vertex -0.996203 6.92875 3
      vertex -2.9079 6.36742 3
    endloop
  endfacet
  facet normal 0 0 1
    outer loop
      vertex 0.996203 -6.92875 3
      vertex -6.25 0 3
      vertex -0.996203 -6.92875 3
    endloop
  endfacet
  facet normal 0 0 1
    outer loop
      vertex -0.996203 -6.92875 3
      vertex -6.25 0 3
      vertex -2.9079 -6.36742 3
    endloop
  endfacet
  facet normal 0 0 1
    outer loop
      vertex -2.9079 6.36742 3
      vertex -7.125 1.51554 3
      vertex -6.25 0 3
    endloop
  endfacet
  facet normal -0 0 1
    outer loop
      vertex -8.92705 2.85317 3
      vertex -7.125 1.51554 3
      vertex -2.9079 6.36742 3
    endloop
  endfacet
  facet normal 0 0 1
    outer loop
      vertex -7.125 1.51554 3
      vertex -8.92705 2.85317 3
      vertex -8.875 1.51554 3
    endloop
  endfacet
  facet normal -0 0 1
    outer loop
      vertex -10.4271 1.76336 3
      vertex -8.875 1.51554 3
      vertex -8.92705 2.85317 3
    endloop
  endfacet
  facet normal 0 0 1
    outer loop
      vertex -8.875 1.51554 3
      vertex -10.4271 1.76336 3
      vertex -9.75 0 3
    endloop
  endfacet
  facet normal 0 -1 0
    outer loop
      vertex -0.996203 -6.92875 0
      vertex 0.996203 -6.92875 3
      vertex -0.996203 -6.92875 3
    endloop
  endfacet
  facet normal 0 -1 -0
    outer loop
      vertex 0.996203 -6.92875 3
      vertex -0.996203 -6.92875 0
      vertex 0.996203 -6.92875 0
    endloop
  endfacet
  facet normal 0 1 -0
    outer loop
      vertex 0.996203 6.92875 0
      vertex -0.996203 6.92875 3
      vertex 0.996203 6.92875 3
    endloop
  endfacet
  facet normal 0 1 0
    outer loop
      vertex -0.996203 6.92875 3
      vertex 0.996203 6.92875 0
      vertex -0.996203 6.92875 0
    endloop
  endfacet
  facet normal 0.587785 -0.809017 0
    outer loop
      vertex 8.92705 -2.85317 0
      vertex 10.4271 -1.76336 3
      vertex 8.92705 -2.85317 3
    endloop
  endfacet
  facet normal 0.587785 -0.809017 0
    outer loop
      vertex 10.4271 -1.76336 3
      vertex 8.92705 -2.85317 0
      vertex 10.4271 -1.76336 0
    endloop
  endfacet
  facet normal -0.504201 -0.863586 0
    outer loop
      vertex -8.92705 -2.85317 0
      vertex -2.9079 -6.36742 3
      vertex -8.92705 -2.85317 3
    endloop
  endfacet
  facet normal -0.504201 -0.863586 -0
    outer loop
      vertex -2.9079 -6.36742 3
      vertex -8.92705 -2.85317 0
      vertex -2.9079 -6.36742 0
    endloop
  endfacet
  facet normal -0.281733 0.959493 0
    outer loop
      vertex -0.996203 6.92875 0
      vertex -2.9079 6.36742 3
      vertex -0.996203 6.92875 3
    endloop
  endfacet
  facet normal -0.281733 0.959493 0
    outer loop
      vertex -2.9079 6.36742 3
      vertex -0.996203 6.92875 0
      vertex -2.9079 6.36742 0
    endloop
  endfacet
  facet normal 0.281733 0.959493 -0
    outer loop
      vertex 2.9079 6.36742 0
      vertex 0.996203 6.92875 3
      vertex 2.9079 6.36742 3
    endloop
  endfacet
  facet normal 0.281733 0.959493 0
    outer loop
      vertex 0.996203 6.92875 3
      vertex 2.9079 6.36742 0
      vertex 0.996203 6.92875 0
    endloop
  endfacet
  facet normal 0.951056 -0.309017 0
    outer loop
      vertex 10.4271 -1.76336 3
      vertex 11 0 0
      vertex 11 0 3
    endloop
  endfacet
  facet normal 0.951056 -0.309017 0
    outer loop
      vertex 11 0 0
      vertex 10.4271 -1.76336 3
      vertex 10.4271 -1.76336 0
    endloop
  endfacet
  facet normal 0 0 -1
    outer loop
      vertex -7.125 1.51554 0
      vertex -2.9079 6.36742 0
      vertex -6.25 0 0
    endloop
  endfacet
  facet normal 0 0 -1
    outer loop
      vertex -8.92705 2.85317 0
      vertex -7.125 1.51554 0
      vertex -8.875 1.51554 0
    endloop
  endfacet
  facet normal 0 0 -1
    outer loop
      vertex -7.125 1.51554 0
      vertex -8.92705 2.85317 0
      vertex -2.9079 6.36742 0
    endloop
  endfacet
  facet normal 0 0 -1
    outer loop
      vertex -10.4271 1.76336 0
      vertex -8.875 1.51554 0
      vertex -9.75 0 0
    endloop
  endfacet
  facet normal 0 0 -1
    outer loop
      vertex -11 0 0
      vertex -9.75 0 0
      vertex -10.4271 -1.76336 0
    endloop
  endfacet
  facet normal 0 0 -1
    outer loop
      vertex -8.875 1.51554 0
      vertex -10.4271 1.76336 0
      vertex -8.92705 2.85317 0
    endloop
  endfacet
  facet normal 0 0 -1
    outer loop
      vertex -9.75 0 0
      vertex -11 0 0
      vertex -10.4271 1.76336 0
    endloop
  endfacet
  facet normal 0 0 -1
    outer loop
      vertex 9.75 0 0
      vertex 11 0 0
      vertex 10.4271 -1.76336 0
    endloop
  endfacet
  facet normal 0 0 -1
    outer loop
      vertex 11 0 0
      vertex 9.75 0 0
      vertex 10.4271 1.76336 0
    endloop
  endfacet
  facet normal 0 0 -1
    outer loop
      vertex 8.875 -1.51554 0
      vertex 10.4271 -1.76336 0
      vertex 8.92705 -2.85317 0
    endloop
  endfacet
  facet normal 0 0 -1
    outer loop
      vertex 10.4271 -1.76336 0
      vertex 8.875 -1.51554 0
      vertex 9.75 0 0
    endloop
  endfacet
  facet normal 0 0 -1
    outer loop
      vertex 8.92705 -2.85317 0
      vertex 7.125 -1.51554 0
      vertex 8.875 -1.51554 0
    endloop
  endfacet
  facet normal -0 0 -1
    outer loop
      vertex 7.125 -1.51554 0
      vertex 2.9079 -6.36742 0
      vertex 6.25 0 0
    endloop
  endfacet
  facet normal 0 0 -1
    outer loop
      vertex 2.9079 -6.36742 0
      vertex 7.125 -1.51554 0
      vertex 8.92705 -2.85317 0
    endloop
  endfacet
  facet normal 0 0 -1
    outer loop
      vertex 8.875 1.51554 0
      vertex 10.4271 1.76336 0
      vertex 9.75 0 0
    endloop
  endfacet
  facet normal -0 0 -1
    outer loop
      vertex 10.4271 1.76336 0
      vertex 8.875 1.51554 0
      vertex 8.92705 2.85317 0
    endloop
  endfacet
  facet normal 0 0 -1
    outer loop
      vertex 7.125 1.51554 0
      vertex 8.92705 2.85317 0
      vertex 8.875 1.51554 0
    endloop
  endfacet
  facet normal 0 0 -1
    outer loop
      vertex 7.125 1.51554 0
      vertex 2.9079 6.36742 0
      vertex 8.92705 2.85317 0
    endloop
  endfacet
  facet normal 0 0 -1
    outer loop
      vertex 6.25 0 0
      vertex 2.9079 6.36742 0
      vertex 7.125 1.51554 0
    endloop
  endfacet
  facet normal 0 0 -1
    outer loop
      vertex 0.996203 -6.92875 0
      vertex 6.25 0 0
      vertex 2.9079 -6.36742 0
    endloop
  endfacet
  facet normal -0 0 -1
    outer loop
      vertex 6.25 0 0
      vertex 0.996203 -6.92875 0
      vertex -6.25 0 0
    endloop
  endfacet
  facet normal 0 -0 -1
    outer loop
      vertex 0.996203 6.92875 0
      vertex 6.25 0 0
      vertex -6.25 0 0
    endloop
  endfacet
  facet normal 0 0 -1
    outer loop
      vertex -6.25 0 0
      vertex 0.996203 -6.92875 0
      vertex -0.996203 -6.92875 0
    endloop
  endfacet
  facet normal 0 0 -1
    outer loop
      vertex 6.25 0 0
      vertex 0.996203 6.92875 0
      vertex 2.9079 6.36742 0
    endloop
  endfacet
  facet normal 0 0 -1
    outer loop
      vertex -6.25 0 0
      vertex -0.996203 -6.92875 0
      vertex -2.9079 -6.36742 0
    endloop
  endfacet
  facet normal -0 0 -1
    outer loop
      vertex 0.996203 6.92875 0
      vertex -6.25 0 0
      vertex -0.996203 6.92875 0
    endloop
  endfacet
  facet normal 0 0 -1
    outer loop
      vertex -0.996203 6.92875 0
      vertex -6.25 0 0
      vertex -2.9079 6.36742 0
    endloop
  endfacet
  facet normal 0 0 -1
    outer loop
      vertex -2.9079 -6.36742 0
      vertex -7.125 -1.51554 0
      vertex -6.25 0 0
    endloop
  endfacet
  facet normal 0 0 -1
    outer loop
      vertex -8.92705 -2.85317 0
      vertex -7.125 -1.51554 0
      vertex -2.9079 -6.36742 0
    endloop
  endfacet
  facet normal -0 0 -1
    outer loop
      vertex -7.125 -1.51554 0
      vertex -8.92705 -2.85317 0
      vertex -8.875 -1.51554 0
    endloop
  endfacet
  facet normal 0 0 -1
    outer loop
      vertex -10.4271 -1.76336 0
      vertex -8.875 -1.51554 0
      vertex -8.92705 -2.85317 0
    endloop
  endfacet
  facet normal -0 0 -1
    outer loop
      vertex -8.875 -1.51554 0
      vertex -10.4271 -1.76336 0
      vertex -9.75 0 0
    endloop
  endfacet
  facet normal -0.504201 0.863586 0
    outer loop
      vertex -2.9079 6.36742 0
      vertex -8.92705 2.85317 3
      vertex -2.9079 6.36742 3
    endloop
  endfacet
  facet normal -0.504201 0.863586 0
    outer loop
      vertex -8.92705 2.85317 3
      vertex -2.9079 6.36742 0
      vertex -8.92705 2.85317 0
    endloop
  endfacet
  facet normal 0.587785 0.809017 -0
    outer loop
      vertex 10.4271 1.76336 0
      vertex 8.92705 2.85317 3
      vertex 10.4271 1.76336 3
    endloop
  endfacet
  facet normal 0.587785 0.809017 0
    outer loop
      vertex 8.92705 2.85317 3
      vertex 10.4271 1.76336 0
      vertex 8.92705 2.85317 0
    endloop
  endfacet
  facet normal 0.504201 -0.863586 0
    outer loop
      vertex 2.9079 -6.36742 0
      vertex 8.92705 -2.85317 3
      vertex 2.9079 -6.36742 3
    endloop
  endfacet
  facet normal 0.504201 -0.863586 0
    outer loop
      vertex 8.92705 -2.85317 3
      vertex 2.9079 -6.36742 0
      vertex 8.92705 -2.85317 0
    endloop
  endfacet
  facet normal -0.281733 -0.959493 0
    outer loop
      vertex -2.9079 -6.36742 0
      vertex -0.996203 -6.92875 3
      vertex -2.9079 -6.36742 3
    endloop
  endfacet
  facet normal -0.281733 -0.959493 -0
    outer loop
      vertex -0.996203 -6.92875 3
      vertex -2.9079 -6.36742 0
      vertex -0.996203 -6.92875 0
    endloop
  endfacet
  facet normal -0.587785 -0.809017 0
    outer loop
      vertex -10.4271 -1.76336 0
      vertex -8.92705 -2.85317 3
      vertex -10.4271 -1.76336 3
    endloop
  endfacet
  facet normal -0.587785 -0.809017 -0
    outer loop
      vertex -8.92705 -2.85317 3
      vertex -10.4271 -1.76336 0
      vertex -8.92705 -2.85317 0
    endloop
  endfacet
  facet normal -0.951056 -0.309017 0
    outer loop
      vertex -10.4271 -1.76336 0
      vertex -11 0 3
      vertex -11 0 0
    endloop
  endfacet
  facet normal -0.951056 -0.309017 0
    outer loop
      vertex -11 0 3
      vertex -10.4271 -1.76336 0
      vertex -10.4271 -1.76336 3
    endloop
  endfacet
  facet normal 0.504201 0.863586 -0
    outer loop
      vertex 8.92705 2.85317 0
      vertex 2.9079 6.36742 3
      vertex 8.92705 2.85317 3
    endloop
  endfacet
  facet normal 0.504201 0.863586 0
    outer loop
      vertex 2.9079 6.36742 3
      vertex 8.92705 2.85317 0
      vertex 2.9079 6.36742 0
    endloop
  endfacet
  facet normal 0.281733 -0.959493 0
    outer loop
      vertex 0.996203 -6.92875 0
      vertex 2.9079 -6.36742 3
      vertex 0.996203 -6.92875 3
    endloop
  endfacet
  facet normal 0.281733 -0.959493 0
    outer loop
      vertex 2.9079 -6.36742 3
      vertex 0.996203 -6.92875 0
      vertex 2.9079 -6.36742 0
    endloop
  endfacet
endsolid OpenSCAD_Model
